<?xml version="1.0" encoding="UTF-8" standalone="no"?>
<!-- Created with Inkscape (http://www.inkscape.org/) -->

<svg
   version="1.1"
   id="svg2"
   width="108"
   height="108"
   viewBox="0 0 108 108"
   xmlns="http://www.w3.org/2000/svg"
   xmlns:svg="http://www.w3.org/2000/svg">
  <defs
     id="defs6" />
  <g
     id="g8">
    <path
       style="fill:#0075ff;fill-opacity:1;stroke-width:0.149714"
       d="M 49.038126,107.89586 C 40.18418,106.927 32.779597,104.42757 25.708252,100.02079 15.512462,93.666888 7.1561688,83.383973 3.1812861,72.300019 -1.2084389,60.059278 -1.0493751,46.446349 3.621923,34.589598 6.5082186,27.263566 10.365059,21.266199 15.616927,15.937427 27.145642,4.2398975 43.589217,-1.5167461 60.158716,0.3440293 77.093745,2.245854 91.986508,11.843865 100.35912,26.252179 c 3.95922,6.813373 6.47079,14.176422 7.37125,21.609914 0.35824,2.957308 0.35978,9.434222 0.003,12.401947 -1.48153,12.322089 -6.61753,22.947252 -15.353223,31.762176 -8.540429,8.617894 -19.166514,13.926104 -31.355202,15.663374 -1.974926,0.28148 -10.032343,0.42014 -11.986779,0.20627 z M 62.362074,92.433063 c 0.743841,-0.377798 1.1942,-1.129884 1.1942,-1.994278 0,-0.913478 -0.456412,-1.620745 -1.335664,-2.069776 -0.613699,-0.313415 -0.860862,-0.338691 -3.311914,-0.338691 h -2.648722 v -5.494315 -5.494314 l 0.55839,-1.51e-4 c 0.706745,-3.01e-4 3.194554,-0.606923 4.653253,-1.134741 2.726979,-0.986732 6.262451,-3.276316 6.963999,-4.509909 0.840147,-1.477301 -0.420097,-3.224635 -2.200964,-3.051648 -0.552574,0.05368 -0.957473,0.247921 -1.877569,0.900751 -2.494492,1.769897 -4.600085,2.667321 -7.394444,3.151589 -4.630394,0.802453 -8.951455,-0.222282 -13.193752,-3.128886 -1.137173,-0.779175 -1.508128,-0.957698 -1.989931,-0.957698 -1.190002,0 -2.196239,0.927878 -2.196239,2.025212 0,1.041766 0.745195,1.921463 2.835613,3.347421 2.580078,1.759972 5.090751,2.709712 8.958304,3.388754 0.232762,0.04087 0.257504,0.497906 0.297808,5.501257 l 0.04396,5.456689 -2.456918,9.03e-4 c -1.351304,4.51e-4 -2.694413,0.06753 -2.984687,0.149053 -0.290272,0.08152 -0.754991,0.385209 -1.032706,0.674867 -0.430818,0.449342 -0.513749,0.653949 -0.564964,1.393867 -0.05012,0.724116 -0.0026,0.951628 0.288187,1.378774 0.749324,1.100827 0.477635,1.069026 9.13123,1.068765 7.076753,-1.5e-4 7.790066,-0.02295 8.263532,-0.263426 z M 26.022103,80.283473 c 0.231871,-0.121214 0.591404,-0.424413 0.798964,-0.673776 0.853133,-1.024957 0.648691,-2.17274 -0.629709,-3.53532 C 23.70973,73.42934 21.096699,69.308938 19.549767,65.601471 16.432274,58.129904 15.949302,49.323765 18.219684,41.349755 c 1.502334,-5.276473 4.078438,-10.030844 7.661362,-14.139542 1.439973,-1.65128 1.652194,-2.217372 1.210062,-3.22779 -0.500797,-1.144492 -1.696781,-1.653587 -2.818635,-1.199811 -1.152665,0.466238 -3.953131,3.819329 -5.921573,7.090096 -3.016384,5.012028 -4.897339,10.454668 -5.740886,16.611557 -0.296131,2.161402 -0.252724,8.34983 0.07444,10.612307 0.711135,4.917852 1.958935,8.890543 4.151939,13.218765 2.036481,4.019296 5.581753,8.907938 7.185852,9.908702 0.537011,0.33503 1.422339,0.361341 1.999862,0.05943 z m 58.183538,-0.04935 c 1.258802,-0.684464 4.564961,-5.101059 6.525863,-8.717695 C 96.500011,60.877144 97.3937,48.757126 93.24869,37.37891 92.411685,35.0813 90.536256,31.185893 89.34329,29.267098 87.434784,26.197413 84.924437,23.18515 83.944372,22.788725 c -1.828469,-0.739592 -3.664965,0.989621 -2.981378,2.807214 0.07362,0.195737 0.659927,0.970032 1.302911,1.720652 7.159691,8.358236 10.395637,19.749991 8.60897,30.306833 -1.172455,6.927649 -4.140454,13.116196 -8.760118,18.265628 -1.156508,1.289131 -1.19601,1.35794 -1.253059,2.182673 -0.04891,0.706993 1.49e-4,0.938432 0.289305,1.363135 0.678202,0.996341 2.037891,1.352111 3.054638,0.799263 z M 33.755243,72.268239 c 0.504372,-0.373553 0.913114,-1.187178 0.913409,-1.818199 2.98e-4,-0.605791 -0.428192,-1.483542 -0.970695,-1.988515 -0.475664,-0.442758 -1.928779,-2.344754 -2.530077,-3.311642 -1.324831,-2.130331 -2.626771,-5.405917 -3.176511,-7.99187 -1.23333,-5.801535 -0.589851,-11.41017 1.931348,-16.833846 0.77233,-1.66146 2.240685,-4.002657 3.217181,-5.129591 1.094107,-1.26266 1.528985,-1.97689 1.528985,-2.511151 0,-1.618382 -1.563334,-2.802626 -3.046533,-2.307784 -0.972388,0.324419 -3.195643,3.164369 -4.902642,6.262557 -1.528923,2.774985 -2.588319,5.825978 -3.235909,9.319215 -0.393188,2.120944 -0.544752,6.856142 -0.291622,9.110964 0.498936,4.444421 2.018415,8.899846 4.301295,12.612271 1.458298,2.371487 3.497408,4.744198 4.205155,4.89312 0.65891,0.138645 1.657112,-0.0096 2.056616,-0.305529 z m 43.057864,0.10468 c 0.509986,-0.275916 2.541345,-2.732328 3.543145,-4.284536 4.84028,-7.499625 6.070307,-16.876273 3.35216,-25.553937 -0.60041,-1.916803 -1.629635,-4.419596 -2.399356,-5.834578 -1.576681,-2.898421 -4.044364,-5.996226 -5.04156,-6.328923 -1.686601,-0.562704 -3.371829,1.247817 -2.735734,2.93913 0.0813,0.216169 0.561423,0.87884 1.066942,1.472602 2.719072,3.193716 4.771369,7.538528 5.642604,11.945661 0.41028,2.075398 0.552244,5.907423 0.296042,7.991117 -0.620991,5.050557 -2.721396,9.83279 -5.895525,13.423009 -1.042059,1.178662 -1.257882,1.572123 -1.257882,2.293215 0,0.799582 0.666456,1.730278 1.489117,2.079526 0.41652,0.176828 1.496636,0.09761 1.940047,-0.142286 z m -19.387418,-7.51925 c 4.068744,-1.168944 7.226245,-4.408275 8.541128,-8.762481 0.327705,-1.085193 0.33357,-1.25492 0.383992,-11.112214 0.03273,-6.398013 -0.0048,-10.434665 -0.104088,-11.186511 -0.206979,-1.56783 -0.891724,-3.585384 -1.677414,-4.942378 -0.774641,-1.337909 -2.960969,-3.601365 -4.173951,-4.321194 -4.005317,-2.376909 -8.692153,-2.386966 -12.629597,-0.0271 -2.176108,1.304226 -4.301663,3.856138 -5.220007,6.267069 -0.865173,2.27134 -0.89693,2.792466 -0.84495,13.86533 l 0.04719,10.053918 0.413877,1.345484 c 0.640462,2.082097 1.577967,3.772943 2.873706,5.182905 1.838024,2.000048 4.252516,3.369041 6.831724,3.873523 1.447836,0.28319 4.149946,0.168293 5.558385,-0.236348 z"
       id="path293" />
  </g>
</svg>
